HIERARCHY
ROOT Hips
{
	OFFSET -0.179506 -22.333345 2.821913
	CHANNELS 6 Xposition Yposition Zposition Zrotation Yrotation Xrotation 
	JOINT LeftUpLeg
	{
		OFFSET 6.951974 -9.140623 -0.681533
		CHANNELS 3 Zrotation Yrotation Xrotation
		JOINT LeftLeg
		{
			OFFSET 3.427654 -37.519855 -0.449580
			CHANNELS 3 Zrotation Yrotation Xrotation
			JOINT LeftFoot
			{
				OFFSET -1.359570 -39.796059 -4.369333
				CHANNELS 3 Zrotation Yrotation Xrotation
				JOINT LeftToe
				{
					OFFSET 2.635814 -5.579078 11.928840
					CHANNELS 3 Zrotation Yrotation Xrotation
					End Site
					{
						OFFSET 0.000000 0.000000 0.000000
					}
				}
			}
		}
	}
	JOINT RightUpLeg
	{
		OFFSET -6.767048 -9.052170 -0.431982
		CHANNELS 3 Zrotation Yrotation Xrotation
		JOINT RightLeg
		{
			OFFSET -3.829005 -38.256897 -0.885003
			CHANNELS 3 Zrotation Yrotation Xrotation
			JOINT RightFoot
			{
				OFFSET 1.577377 -39.841461 -4.231180
				CHANNELS 3 Zrotation Yrotation Xrotation
				JOINT RightToe
				{
					OFFSET -2.537174 -4.814398 12.334795
					CHANNELS 3 Zrotation Yrotation Xrotation
					End Site
					{
						OFFSET 0.000000 0.000000 0.000000
					}
				}
			}
		}
	}
	JOINT Spine
	{
		OFFSET -0.253288 10.896323 -2.669631
		CHANNELS 3 Zrotation Yrotation Xrotation
		JOINT Spine1
		{
			OFFSET 0.548704 13.518043 0.109247
			CHANNELS 3 Zrotation Yrotation Xrotation
			JOINT Spine2
			{
				OFFSET 0.145701 5.292222 2.542457
				CHANNELS 3 Zrotation Yrotation Xrotation
				JOINT Neck
				{
					OFFSET -0.277840 21.387037 -4.285703
					CHANNELS 3 Zrotation Yrotation Xrotation
					JOINT Head
					{
						OFFSET 0.515184 6.496960 5.134897
						CHANNELS 3 Zrotation Yrotation Xrotation
						End Site
						{
							OFFSET 0.000000 0.000000 0.000000
						}
					}
				}
				JOINT LeftShoulder
				{
					OFFSET 7.884473 12.174932 -3.408961
					CHANNELS 3 Zrotation Yrotation Xrotation
					JOINT LeftArm
					{
						OFFSET 9.097692 3.046888 -0.886815
						CHANNELS 3 Zrotation Yrotation Xrotation
						JOINT LeftForeArm
						{
							OFFSET 25.961220 -1.277207 -2.745643
							CHANNELS 3 Zrotation Yrotation Xrotation
							JOINT LeftHand
							{
								OFFSET 24.923361 0.898606 -0.117091
								CHANNELS 3 Zrotation Yrotation Xrotation
								End Site
								{
									OFFSET 0.000000 0.000000 0.000000
								}
							}
						}
					}
				}
				JOINT RightShoulder
				{
					OFFSET -8.175920 11.883285 -3.861528
					CHANNELS 3 Zrotation Yrotation Xrotation
					JOINT RightArm
					{
						OFFSET -9.601238 3.255117 -0.914307
						CHANNELS 3 Zrotation Yrotation Xrotation
						JOINT RightForeArm
						{
							OFFSET -25.374195 -1.332924 -2.140099
							CHANNELS 3 Zrotation Yrotation Xrotation
							JOINT RightHand
							{
								OFFSET -25.529810 0.777228 -0.555919
								CHANNELS 3 Zrotation Yrotation Xrotation
								End Site
								{
									OFFSET 0.000000 0.000000 0.000000
								}
							}
						}
					}
				}
			}
		}
	}
}
MOTION
Frames: 18
Frame Time: 0.033333
11.026791 44.065796 89.556091 -111.134634 -0.059442 89.333184 6.431615 4.673469 -2.213209 -4.306242 1.251411 22.158402 3.963360 12.487695 -28.391814 nan nan nan -15.033547 -9.082183 -18.122437 1.518886 -10.667312 14.806525 5.007832 -5.527022 -0.653569 nan nan nan -4.429662 3.462055 2.645023 7.890339 -3.279518 17.797312 0.399055 1.054575 -7.066624 6.949155 -14.451551 9.695064 4.510668 -15.299331 11.986979 -24.129975 -4.847696 10.472615 -57.568430 -21.092743 23.517142 176.663521 -71.818952 -143.202829 -12.611033 -16.143137 -0.167845 30.041926 8.601016 6.397570 47.250428 14.852978 0.732775 -95.492989 54.543420 -74.752642 -4.566107 3.264702 1.988824 
11.003088 43.836655 89.576797 -111.151619 0.072485 89.255524 6.402064 4.710360 -2.231457 -4.148429 1.434342 22.277999 3.943509 12.277396 -28.505905 nan nan nan -14.994064 -9.235383 -17.954319 1.604486 -10.618536 14.500368 5.401233 -5.597368 -0.260781 nan nan nan -4.283232 2.998644 3.953304 7.667272 -3.393754 15.510520 0.180642 1.401243 -6.602943 6.523981 -14.406127 10.268689 4.835388 -15.029019 12.370965 -23.815889 -3.773993 10.285085 -57.814480 -21.446838 24.071839 178.510136 -71.174020 -144.859781 -11.470084 -16.192247 -1.584050 30.451474 7.675756 6.930848 48.083711 14.941625 1.187956 -96.890216 54.908272 -75.960992 -4.674571 3.141356 1.962063 
11.008812 43.596851 89.577454 -111.228517 0.185846 89.176139 6.367077 4.621375 -2.226080 -4.045660 1.651501 22.337193 3.937612 12.293951 -28.594392 nan nan nan -15.017058 -9.262638 -17.894018 1.690820 -10.833751 14.357899 5.744389 -5.552039 0.225383 nan nan nan -4.367155 3.046209 3.955940 7.688439 -3.314763 15.274261 0.270488 1.313652 -6.286097 6.434488 -14.191310 10.366460 5.012591 -15.249766 12.073977 -23.734726 -3.880945 10.067377 -58.058375 -21.854472 24.353947 177.819851 -70.528645 -144.310541 -11.135219 -16.896090 -2.055111 30.412614 7.438505 6.774420 48.816057 14.442321 1.356880 -98.366142 55.008564 -77.182669 -4.579063 3.217477 1.807534 
11.016497 43.359993 89.592430 -111.334221 0.319088 89.058284 6.367280 4.564572 -2.152197 -3.966221 1.824017 22.347857 3.910320 12.288921 -28.636546 nan nan nan -14.996432 -9.249322 -17.780118 1.730575 -11.121476 14.175542 6.113748 -5.460687 0.775696 nan nan nan -4.494710 3.183501 3.874925 7.776386 -3.169300 15.466114 0.414758 1.148693 -6.278173 6.472258 -13.974124 10.449933 5.072719 -15.576919 11.902376 -23.760101 -4.170062 9.947482 -58.203371 -22.271999 24.578326 177.110310 -69.879578 -143.649903 -10.694655 -17.578598 -1.561233 30.341863 7.245202 6.593234 49.555464 13.978559 1.352139 -99.644529 55.180921 -78.473686 -4.941632 3.642668 1.498783 
11.024388 43.134979 89.642403 -111.404941 0.498614 88.966672 6.428340 4.603519 -2.137800 -3.946961 1.905092 22.403527 3.845976 12.190094 -28.676791 nan nan nan -14.895789 -9.225367 -17.578949 1.757506 -11.315385 13.789997 6.353602 -5.415084 1.245130 nan nan nan -4.515355 3.161882 3.995223 7.821948 -3.176037 14.899619 0.428277 1.193772 -5.891397 6.266595 -13.877100 10.900579 5.285632 -15.654629 11.979508 -23.776211 -4.348528 10.080318 -58.220259 -22.899601 24.471455 177.342539 -69.248133 -143.898420 -10.291108 -17.691757 -0.903196 30.511211 7.026655 6.837746 50.114995 13.813540 0.965575 -100.762781 55.621481 -80.119377 -5.492996 4.040747 1.603855 
11.048007 42.903488 89.685966 -111.467237 0.646465 88.851098 6.435846 4.587244 -2.110678 -3.984142 1.915275 22.452874 3.941811 12.251490 -28.741143 nan nan nan -14.879358 -9.222500 -17.385822 1.847859 -11.451210 13.444126 6.279288 -5.368345 1.621133 nan nan nan -4.697520 3.369918 4.131616 8.020985 -3.053423 14.953220 0.558182 0.996898 -6.157083 6.214460 -13.953171 10.971869 5.108739 -15.705689 12.407351 -23.611694 -4.334988 10.220391 -58.815415 -23.821790 24.734819 177.023431 -68.720347 -143.657648 -10.763506 -17.674044 -0.639612 30.394879 6.484283 6.755648 50.500249 13.531738 1.138241 -101.722319 55.836045 -80.720536 -5.177489 3.963230 1.572671 
11.103110 42.683216 89.711189 -111.553569 0.704261 88.850004 6.345354 4.521333 -2.245943 -4.015855 2.034418 22.521210 4.123983 12.255804 -28.765941 nan nan nan -14.943215 -9.308080 -17.435096 1.913727 -11.685457 13.276157 6.361709 -5.216008 2.071619 nan nan nan -4.673841 2.915401 4.098247 7.798201 -3.554905 15.099721 0.163270 1.542617 -6.336295 6.248981 -13.545024 11.252807 5.170445 -15.696122 12.687616 -23.145170 -3.869015 10.057342 -59.144135 -24.563274 24.964915 177.095502 -68.105318 -143.903722 -9.362380 -17.129906 -0.537829 30.715479 6.344089 7.296983 50.929735 13.706037 1.387285 -102.390030 55.933664 -81.181270 -5.679991 3.955930 1.956861 
11.156251 42.477375 89.741592 -111.640513 0.764151 88.863953 6.277919 4.450291 -2.370791 -3.975443 2.279132 22.534555 4.302200 12.111076 -28.737388 nan nan nan -15.011519 -9.363748 -17.469564 1.993891 -11.959618 13.080501 6.536116 -4.989227 2.639124 nan nan nan -4.537682 2.298703 4.110289 7.468326 -4.219213 15.248739 -0.383777 2.252249 -6.668217 6.312681 -13.003269 11.628756 5.255883 -15.712610 12.900431 -22.632333 -3.244816 9.865215 -59.191931 -25.039123 25.166602 177.536980 -67.381768 -144.425832 -8.777996 -17.029850 -0.822230 31.174900 6.206242 7.879286 51.412976 13.970375 1.735222 -102.854103 55.991317 -81.410140 -6.008425 3.923391 2.428126 
11.214211 42.290142 89.778915 -111.743860 0.882565 88.907473 6.298491 4.378645 -2.522005 -3.918624 2.538792 22.585634 4.350978 11.955795 -28.736600 nan nan nan -14.962560 -9.319872 -17.547203 2.004103 -12.156973 12.877812 6.738035 -4.855038 3.202236 nan nan nan -4.490150 2.007353 4.115531 7.343819 -4.528424 14.844358 -0.621301 2.569427 -6.442609 6.261315 -12.710088 11.952217 5.444439 -15.670299 12.972402 -22.341255 -3.080971 9.770061 -59.276140 -25.357864 25.321992 177.690557 -66.765680 -144.732746 -8.616670 -17.181278 -1.595112 31.405751 6.072834 8.063176 51.784971 13.933902 1.901254 -103.307372 56.194804 -81.701295 -6.281486 4.002252 2.613897 
11.297106 42.115337 89.818672 -111.840369 1.107926 89.039632 6.468181 4.329478 -2.807147 -3.918905 2.762985 22.714205 4.329643 11.848191 -28.765300 nan nan nan -14.750396 -9.250334 -17.738617 1.990060 -12.317895 12.654637 6.840455 -4.859537 3.810110 nan nan nan -4.529269 2.014234 4.155504 7.455395 -4.503029 14.046811 -0.536983 2.505746 -5.948100 6.193616 -12.686810 12.164376 5.520008 -15.614554 13.038238 -22.265584 -3.209162 9.722251 -59.485828 -25.666079 25.544017 177.581968 -66.307136 -144.803312 -8.066959 -17.197636 -2.049250 31.320408 5.868156 7.953063 52.095603 13.639143 1.935145 -103.803539 56.539952 -82.078298 -6.597676 4.068934 2.627465 
11.316836 41.940205 89.892380 -112.062149 1.259633 88.995129 6.515868 4.386450 -2.711329 -3.933802 2.851153 22.586151 4.348802 11.960186 -28.760069 nan nan nan -14.645717 -9.237510 -17.686327 2.073518 -12.280776 12.349366 6.889175 -4.836798 4.602338 nan nan nan -4.726971 2.271167 4.333009 7.678184 -4.151141 13.728177 -0.249141 2.127087 -5.991970 6.099557 -12.921454 12.265331 5.369593 -15.567667 13.164619 -22.387291 -3.317571 9.715786 -59.733745 -25.995813 25.863686 177.533525 -65.938222 -144.792266 -7.267598 -17.323804 -2.146059 31.059259 5.387668 7.608556 52.307983 13.260869 2.082068 -104.225479 57.067465 -82.423992 -6.763333 4.038975 2.610211 
11.278707 41.757473 89.975212 -112.422650 1.248737 88.778845 6.327142 4.484016 -2.252137 -3.909582 2.918923 22.225971 4.416449 12.192879 -28.686838 nan nan nan -14.775355 -9.209509 -17.476041 2.196223 -12.150427 12.114449 7.032182 -4.680033 5.409140 nan nan nan -4.987426 2.463928 4.172900 7.762990 -3.854525 14.412875 -0.065922 1.913612 -6.382885 6.059534 -12.991107 12.391881 5.420579 -15.540076 12.966984 -22.540768 -3.553913 9.639456 -59.756465 -26.373095 26.122355 177.393326 -65.537689 -144.666446 -6.567222 -17.512306 -1.897996 30.888088 5.166318 7.385019 52.401914 12.993876 2.205377 -104.511322 57.352733 -82.761768 -6.884472 4.180513 2.583556 
11.267852 41.569962 90.038780 -112.627297 1.281284 88.680270 6.157656 4.478999 -2.051881 -3.826220 2.974849 22.022969 4.450308 12.358199 -28.623690 nan nan nan -14.901741 -9.192372 -17.375755 2.340430 -12.028854 11.939930 7.147181 -4.561816 5.928945 nan nan nan -5.092056 2.444969 3.977076 7.747165 -3.787560 14.860771 -0.031592 1.888720 -6.610028 5.966929 -12.899297 12.579927 5.573707 -15.425897 12.873488 -22.659726 -3.739863 9.499681 -59.575696 -26.777558 26.358312 177.194852 -65.110360 -144.514655 -6.035575 -17.613793 -1.611176 30.764990 5.103762 7.312388 52.576683 12.771422 2.400744 -104.791319 57.286207 -83.058422 -7.166051 4.475652 2.439021 
11.272426 41.378948 90.091225 -112.706710 1.376615 88.607474 6.079257 4.452582 -1.959450 -3.780350 2.951711 21.906143 4.499170 12.491147 -28.596253 nan nan nan -15.001747 -9.209290 -17.267824 2.557743 -11.860525 11.775385 7.210192 -4.551432 6.164836 nan nan nan -5.097017 2.394131 3.866208 7.751439 -3.834087 14.855915 -0.023097 1.835478 -6.487943 5.720615 -12.844513 12.825089 5.658997 -15.174414 12.969509 -22.721285 -3.968700 9.545491 -59.354107 -27.229234 26.363634 176.969272 -64.712190 -144.556689 -5.557613 -17.583861 -1.581861 30.545144 5.058774 7.292996 52.757418 12.668222 2.472699 -104.925454 57.356881 -83.206095 -7.542956 4.625754 2.419946 
11.283114 41.205605 90.135750 -112.880675 1.475058 88.517423 6.067650 4.533364 -1.830574 -3.764590 3.025507 21.764502 4.557956 12.531366 -28.556391 nan nan nan -15.048567 -9.189538 -17.269085 2.741299 -11.699554 11.761775 7.323629 -4.531172 6.303243 nan nan nan -5.050559 2.230919 3.916390 7.686645 -3.960865 14.719433 -0.129654 1.924991 -6.446780 5.531754 -12.611464 13.150485 5.680918 -14.959725 13.195866 -22.560170 -3.953932 9.652010 -59.273231 -27.583622 26.284743 176.954055 -64.343412 -144.574921 -4.949619 -17.486904 -1.272553 30.396760 4.981230 7.585161 52.858912 12.832974 2.525113 -104.786070 57.639991 -83.134563 -7.770498 4.716566 2.224002 
11.309481 41.051987 90.180367 -113.130450 1.583955 88.480989 6.068508 4.597109 -1.761866 -3.682982 3.257869 21.640824 4.565345 12.512709 -28.465754 nan nan nan -14.997093 -9.102593 -17.427336 2.771032 -11.619657 11.898325 7.411924 -4.352168 6.308590 nan nan nan -4.946556 1.960123 4.042633 7.532123 -4.139195 14.553119 -0.327559 2.197711 -6.572643 5.551925 -12.295434 13.437392 5.667852 -14.983120 13.432452 -22.283372 -3.799223 9.554827 -59.279883 -27.739831 26.340657 176.849503 -63.959600 -144.323904 -4.560069 -17.561058 -1.044014 30.422779 4.985829 7.907486 52.950494 12.917912 2.635367 -104.680197 57.730952 -82.945206 -7.587197 4.821386 2.324367 
11.314374 40.868198 90.237206 -113.271493 1.662919 88.433348 5.952938 4.537985 -1.696076 -3.538458 3.389903 21.521279 4.574789 12.628674 -28.339562 nan nan nan -15.028762 -9.087228 -17.470346 2.840552 -11.472550 11.975863 7.376135 -4.138966 6.125531 nan nan nan -4.924294 1.947242 4.015506 7.510076 -4.160364 14.680219 -0.330193 2.145106 -6.755945 5.559324 -12.315175 13.506630 5.566208 -15.006475 13.539853 -22.237583 -3.930644 9.456908 -59.224862 -27.875308 26.450799 176.543219 -63.649014 -144.169606 -4.257793 -17.813200 -0.953043 30.255930 4.998968 7.817223 53.020417 12.716513 2.703040 -104.679914 57.756537 -82.957540 -7.459952 5.093851 2.594092 
11.438910 40.777164 90.231606 -113.651802 1.998254 88.730404 6.338357 4.594749 -2.122261 -3.627884 3.669080 21.590856 4.568465 12.673065 -28.254453 nan nan nan -14.569153 -8.653815 -18.162493 2.747933 -11.321863 12.281821 7.135426 -4.117187 5.604014 nan nan nan -5.058959 2.347089 3.509164 7.861728 -3.756918 14.755378 0.023502 1.694624 -6.647449 5.628129 -12.415783 13.258082 5.320572 -15.012852 13.536645 -22.142269 -4.282858 9.351683 -59.523987 -28.010880 26.670202 176.296258 -63.429865 -144.086003 -3.945236 -17.975641 -0.954240 29.625396 4.870771 7.338488 53.208735 12.454395 2.798959 -104.609039 57.956440 -82.798867 -7.574301 5.321507 2.037343 
